<?xml version="1.0" encoding="UTF-8"?>
<svg id="Livello_1" data-name="Livello 1" xmlns="http://www.w3.org/2000/svg" version="1.1" xmlns:cc="http://creativecommons.org/ns#" xmlns:dc="http://purl.org/dc/elements/1.1/" xmlns:inkscape="http://www.inkscape.org/namespaces/inkscape" xmlns:rdf="http://www.w3.org/1999/02/22-rdf-syntax-ns#" xmlns:sodipodi="http://sodipodi.sourceforge.net/DTD/sodipodi-0.dtd" xmlns:svg="http://www.w3.org/2000/svg" viewBox="0 0 94 128">
  <defs>
    <style>
      .cls-1 {
        fill: #fff;
        stroke-width: 0px;
      }
    </style>
  </defs>
  <g id="svg2816">
    <g id="_defs" data-name=" defs">
      <inkscape:perspective id="perspective2824" inkscape:persp3d-origin="0.5 : 0.33333333 : 1" inkscape:vp_x="0 : 0.5 : 1" inkscape:vp_y="0 : 1000 : 0" inkscape:vp_z="1 : 0.5 : 1" sodipodi:type="inkscape:persp3d"/>
    </g>
    <sodipodi:namedview id="namedview2818" bordercolor="#666666" borderopacity="1" gridtolerance="10" guidetolerance="10" inkscape:current-layer="svg2816" inkscape:cx="44.920355" inkscape:cy="60.493358" inkscape:pageopacity="0" inkscape:pageshadow="2" inkscape:window-height="809" inkscape:window-maximized="0" inkscape:window-width="1126" inkscape:window-x="287" inkscape:window-y="0" inkscape:zoom="3.0991164" objecttolerance="10" pagecolor="#ffffff" showgrid="false"/>
    <path class="cls-1" d="M81.3,16.7c-6.2-7.4-15-12.9-25.3-15C31.6-3.4,7.7,11.7,2.5,35.4c-.8,3.9-1.1,7.7-.9,11.5-.8,23.5,17.8,45.2,35,68.1,4.2,5.2,10.1,11,10.4,11.7l9.5-11.2c21.5-28.1,53-69.1,24.8-98.8ZM26,42.8c0-.5.2-.8.3-1.4,2.9-10.9,13.8-17.7,24.7-15.3,3.2.7,5.9,2,8.3,3.9,6.3,4.9,9.7,13.3,7.9,21.7-1.8,8.9-8.8,15.3-17,16.8-2.4.5-5,.5-7.5,0h-.6c-4.4-1.1-8.2-3.5-11.1-6.6-4.5-5-6.6-12.1-5.2-19.1h.1Z"/>
  </g>
  <g id="svg2816-2" data-name="svg2816">
    <g id="_defs-2" data-name=" defs">
      <inkscape:perspective id="perspective2824" inkscape:persp3d-origin="0.5 : 0.33333333 : 1" inkscape:vp_x="0 : 0.5 : 1" inkscape:vp_y="0 : 1000 : 0" inkscape:vp_z="1 : 0.5 : 1" sodipodi:type="inkscape:persp3d"/>
    </g>
    <sodipodi:namedview id="namedview2818" bordercolor="#666666" borderopacity="1" gridtolerance="10" guidetolerance="10" inkscape:current-layer="svg2816" inkscape:cx="44.920355" inkscape:cy="60.493358" inkscape:pageopacity="0" inkscape:pageshadow="2" inkscape:window-height="809" inkscape:window-maximized="0" inkscape:window-width="1126" inkscape:window-x="287" inkscape:window-y="0" inkscape:zoom="3.0991164" objecttolerance="10" pagecolor="#ffffff" showgrid="false"/>
    <path class="cls-1" d="M82.8,16.2c-6.2-7.4-15-12.9-25.3-15C33.1-3.9,9.2,11.2,4,34.9c-.8,3.9-1.1,7.7-.9,11.5-.8,23.5,17.8,45.2,35,68.1,4.2,5.2,10.1,11,10.4,11.7l9.5-11.2c21.5-28.1,53-69.1,24.8-98.8ZM27.5,42.4c0-.5.2-.8.3-1.4,2.9-10.9,13.8-17.7,24.7-15.3,3.2.7,5.9,2,8.3,3.9,6.3,4.9,9.7,13.3,7.9,21.7-1.8,8.9-8.8,15.3-17,16.8-2.4.5-5,.5-7.5,0h-.6c-4.4-1.1-8.2-3.5-11.1-6.6-4.5-5-6.6-12.1-5.2-19.1h.1Z"/>
  </g>
  <g id="svg2816-3" data-name="svg2816">
    <g id="_defs-3" data-name=" defs">
      <inkscape:perspective id="perspective2824" inkscape:persp3d-origin="0.5 : 0.33333333 : 1" inkscape:vp_x="0 : 0.5 : 1" inkscape:vp_y="0 : 1000 : 0" inkscape:vp_z="1 : 0.5 : 1" sodipodi:type="inkscape:persp3d"/>
    </g>
    <sodipodi:namedview id="namedview2818" bordercolor="#666666" borderopacity="1" gridtolerance="10" guidetolerance="10" inkscape:current-layer="svg2816" inkscape:cx="44.920355" inkscape:cy="60.493358" inkscape:pageopacity="0" inkscape:pageshadow="2" inkscape:window-height="809" inkscape:window-maximized="0" inkscape:window-width="1126" inkscape:window-x="287" inkscape:window-y="0" inkscape:zoom="3.0991164" objecttolerance="10" pagecolor="#ffffff" showgrid="false"/>
    <path class="cls-1" d="M331.9,85.6c-8.4-10-20.3-17.5-34.2-20.3-9.7-2-19.3-1.7-28.3.6,2.9,1.3,5.4,3.3,7,6,2.9,5.2.6,11.6-3.3,15.5-3,3.1-7,4.6-10.8,6.4-4.4,2.1-7.9,5.1-10.7,9.1-4.9,7.1-5.8,16.7-6,25.1-.1,9.4,2.7,17.5,6.3,26.1,5.4,12.9,11,28.3,4.4,41.8-.2.5-.5,1-.8,1.5,5.2,7,10.6,14,15.9,21.1,5.7,7,13.7,14.9,14.1,15.8l12.9-15.2c29.1-38,71.7-93.5,33.6-133.7ZM312.9,133.1c-2.5,12-11.9,20.7-23.1,22.7-3.2.6-6.7.6-10.2,0h-.8c-6-1.5-11.1-4.7-15-9-6.1-6.7-9-16.3-7-25.9h.2c0-.5.2-1.1.4-1.8,4-14.7,18.6-23.9,33.5-20.7,4.3.9,8,2.7,11.3,5.3,8.5,6.6,13.1,18,10.7,29.3Z"/>
  </g>
</svg>